PathFileType	4	(X/Y/Z)	/Users/itak/Documents/Research/Walk-IL/dataset/trc/00366_00011.trc
DataRate	CameraRate	NumFrames	NumMarkers	Units	OrigDataRate	OrigDataStartFrame	OrigNumFrames
100.000000	100.000000	4	56	mm	100.000000	147	392
Frame#	Time	RPSI			LPSI			L3			STRN			T10			C7			CLAV			RBAK			LBAK			LSHO			LUPA			LAEL			LAOL			LWPS			LFRA			LIFD			LHPS			LHTS			RSHO			RUPA			RAEL			RAOL			RWTS			RWPS			RFRA			RIFD			RHTS			RHPS			RBHD			LFHD			RFHD			LBHD			LHIP			RHIP			RASI			LASI			LKNE			LTHI			LANK			LTIP			LTOE			LMT1			LMT5			LHEE			RKNE			RTHI			RANK			RTIP			RTOE			RMT1			RMT5			RHEE			LWTS			*53			*54			*55			
		X1	Y1	Z1	X2	Y2	Z2	X3	Y3	Z3	X4	Y4	Z4	X5	Y5	Z5	X6	Y6	Z6	X7	Y7	Z7	X8	Y8	Z8	X9	Y9	Z9	X10	Y10	Z10	X11	Y11	Z11	X12	Y12	Z12	X13	Y13	Z13	X14	Y14	Z14	X15	Y15	Z15	X16	Y16	Z16	X17	Y17	Z17	X18	Y18	Z18	X19	Y19	Z19	X20	Y20	Z20	X21	Y21	Z21	X22	Y22	Z22	X23	Y23	Z23	X24	Y24	Z24	X25	Y25	Z25	X26	Y26	Z26	X27	Y27	Z27	X28	Y28	Z28	X29	Y29	Z29	X30	Y30	Z30	X31	Y31	Z31	X32	Y32	Z32	X33	Y33	Z33	X34	Y34	Z34	X35	Y35	Z35	X36	Y36	Z36	X37	Y37	Z37	X38	Y38	Z38	X39	Y39	Z39	X40	Y40	Z40	X41	Y41	Z41	X42	Y42	Z42	X43	Y43	Z43	X44	Y44	Z44	X45	Y45	Z45	X46	Y46	Z46	X47	Y47	Z47	X48	Y48	Z48	X49	Y49	Z49	X50	Y50	Z50	X51	Y51	Z51	X52	Y52	Z52	X53	Y53	Z53	X54	Y54	Z54	X55	Y55	Z55	X56	Y56	Z56	

148	1.47	-630.6690063476562	957.2506713867188	-20.10696411132812	-582.6807861328125	960.1522827148438	-141.5994567871094	-615.1961059570312	1020.178527832031	-75.4698486328125	-386.2894592285156	1200.823608398438	-10.12693214416504	-619.2618408203125	1139.7333984375	-84.04103088378906	-562.2760620117188	1386.048583984375	-93.83938598632812	-422.8105163574219	1325.267578125	-33.30532073974609	-635.6419677734375	1251.87841796875	-39.6892204284668	-542.4190063476562	1345.367553710938	-190.39697265625	-442.5260314941406	1356.294189453125	-216.2504119873047	-459.24755859375	1240.439575195312	-287.7619018554688	-484.7427673339844	1040.47216796875	-310.6771850585938	-558.435791015625	1039.157836914062	-267.3192443847656	-485.4108581542969	782.9208984375	-336.900634765625	-491.9362487792969	936.8280029296875	-325.386474609375	-497.412109375	620.36669921875	-283.1707458496094	-507.9244079589844	715.8985595703125	-338.5744323730469	-463.1488647460938	701.8062744140625	-293.9246215820312	-564.7528076171875	1383.409301757812	78.27728271484375	-595.6525268554688	1323.123291015625	137.9406433105469	-574.0069580078125	1069.660278320312	228.4921875	-587.6258544921875	1042.368530273438	139.5182342529297	-372.4227294921875	915.04541015625	225.4477081298828	-406.2833862304688	886.595703125	289.008056640625	-529.857177734375	1016.507751464844	252.6629180908203	-276.6851806640625	773.0703735351562	262.5041809082031	-300.4746398925781	842.0543823242188	256.3023376464844	-352.3439025878906	820.6432495117188	297.2792663574219	-524.2994384765625	1595.406616210938	-1.716618061065674	-318.7123107910156	1575.237670898438	-23.78691482543945	-374.6200866699219	1578.496215820312	60.19489288330078	-467.9220581054688	1591.1064453125	-134.4790802001953	-461.1714477539062	909.5889282226562	-205.9342041015625	-596.0061645507812	897.3082275390625	107.9268493652344	-482.8226013183594	925.8053588867188	109.3563995361328	-374.6163940429688	934.8724365234375	-103.6659393310547	-274.8641357421875	483.4418029785156	-152.4405822753906	-318.5957336425781	610.6826171875	-172.9542541503906	-214.206298828125	52.32363510131836	-174.1398315429688	-238.7552795410156	267.4805908203125	-177.7613525390625	-54.69557571411133	117.994010925293	-49.39739990234375	-125.2878646850586	80.62894439697266	-32.59689331054688	-98.43300628662109	88.30419921875	-142.6289215087891	-267.3999633789062	35.4531135559082	-122.898323059082	-550.1751098632812	431.8219604492188	41.33050537109375	-525.1609497070312	684.2628173828125	108.4799652099609	-677.2879638671875	52.96881866455078	-70.13625335693359	-553.7654418945312	312.2284851074219	2.541996717453003	-478.320068359375	42.81653213500977	-74.22052001953125	-521.3350219726562	35.89577484130859	-129.3162994384766	-585.4559326171875	39.01046752929688	-29.29918670654297	-714.5925903320312	56.27257537841797	-129.4002075195312	-456.8476867675781	780.608154296875	-274.0877685546875	nan	nan	nan	nan	nan	nan	nan	nan	nan	
149	1.48	-622.029296875	955.8346557617188	-19.98800468444824	-571.5816650390625	958.3136596679688	-140.4661560058594	-605.6781005859375	1018.200134277344	-74.72035217285156	-378.1097106933594	1198.979614257812	-6.34701681137085	-610.19140625	1137.665893554688	-83.41987609863281	-553.1583251953125	1383.962280273438	-92.36594390869141	-414.1679992675781	1323.383056640625	-30.1107349395752	-627.2879028320312	1249.836303710938	-39.05556106567383	-531.9820556640625	1343.259033203125	-188.5977020263672	-431.7754821777344	1354.18994140625	-213.28515625	-448.0046691894531	1238.346313476562	-284.9097595214844	-474.9648132324219	1038.582885742188	-307.7489929199219	-548.9313354492188	1037.908447265625	-264.9937133789062	-478.5463256835938	781.141845703125	-334.8224487304688	-483.0027465820312	935.1546630859375	-322.6785278320312	-495.5070495605469	618.4365234375	-281.7672729492188	-502.4833984375	714.5894165039062	-337.1930541992188	-459.0527038574219	699.2353515625	-291.6771850585938	-558.0240478515625	1381.427856445312	79.58437347412109	-589.238525390625	1321.186645507812	139.1298522949219	-567.017822265625	1068.162475585938	230.9858703613281	-579.7931518554688	1040.369750976562	142.0700378417969	-363.3547058105469	916.3898315429688	229.3419342041016	-397.0091552734375	887.5834350585938	292.8061828613281	-522.39208984375	1015.632873535156	255.5416717529297	-265.6140441894531	776.0615234375	267.3265075683594	-290.4858703613281	844.6232299804688	260.8088684082031	-342.1815185546875	822.5565185546875	301.6617736816406	-516.3840942382812	1593.478149414062	0.05626014247536659	-310.5301818847656	1573.412231445312	-19.56823348999023	-367.3587341308594	1576.70166015625	63.81917572021484	-458.4343872070312	1589.1123046875	-132.0023498535156	-449.3917846679688	906.9935302734375	-202.6886138916016	-589.7677001953125	895.9764404296875	108.7818222045898	-476.5902404785156	924.2249145507812	112.2150802612305	-364.6208801269531	932.50390625	-98.99076843261719	-263.8968200683594	480.2789001464844	-148.9022674560547	-310.5212707519531	606.8234252929688	-170.3936767578125	-183.7805786132812	52.90434646606445	-161.1432647705078	-218.0597381591797	267.3821411132812	-169.7645416259766	-33.11563491821289	127.0011138916016	-29.97025108337402	-103.1647872924805	87.59138488769531	-16.16416168212891	-70.74723052978516	93.76045989990234	-124.7379989624023	-238.8302154541016	35.11694717407227	-112.2625579833984	-546.9118041992188	430.6681518554688	43.25326156616211	-521.3236694335938	682.9129638671875	111.2181701660156	-677.2341918945312	53.17887115478516	-69.98866271972656	-551.3771362304688	310.9931640625	3.937416791915894	-478.4124450683594	42.76446151733398	-74.09992218017578	-521.346435546875	35.93246841430664	-129.2284088134766	-585.4174194335938	38.93702697753906	-29.15456008911133	-714.5717163085938	56.85613632202148	-129.1738128662109	-451.14501953125	777.9214477539062	-271.5007934570312	nan	nan	nan	nan	nan	nan	nan	nan	nan	
150	1.49	-613.3014526367188	954.324951171875	-19.89120864868164	-560.4801635742188	956.3341674804688	-139.3638458251953	-595.9557495117188	1016.109619140625	-73.98167419433594	-369.9249877929688	1197.009643554688	-2.465155124664307	-600.953369140625	1135.508911132812	-82.83226013183594	-543.910400390625	1381.802978515625	-90.88982391357422	-405.3938903808594	1321.4130859375	-26.88902854919434	-618.7887573242188	1247.692260742188	-38.47502899169922	-521.3643798828125	1341.060424804688	-186.7742767333984	-420.8439331054688	1351.973022460938	-210.2514190673828	-436.5943298339844	1236.1240234375	-281.9866027832031	-465.0679016113281	1036.574340820312	-304.793212890625	-539.24951171875	1036.52490234375	-262.6113586425781	-471.3656005859375	779.2575073242188	-332.57177734375	-473.8648376464844	933.3352661132812	-319.9030151367188	-492.8803100585938	616.6005249023438	-280.1668090820312	-496.6323852539062	713.180419921875	-335.5656433105469	-454.5468444824219	696.6229248046875	-289.24365234375	-551.2565307617188	1379.338745117188	80.87242889404297	-582.8302612304688	1319.122680664062	140.2625732421875	-560.20751953125	1066.480346679688	233.3325042724609	-572.10400390625	1038.241088867188	144.4574432373047	-354.6989440917969	917.3392333984375	233.1471557617188	-388.2080993652344	888.2208862304688	296.5058288574219	-515.1710815429688	1014.530639648438	258.27734375	-255.1635437011719	778.5611572265625	272.0684814453125	-280.9939575195312	846.744384765625	265.2470092773438	-332.6002502441406	824.0679931640625	306.00537109375	-508.3985900878906	1591.494018554688	1.829450011253357	-302.3064880371094	1571.541870117188	-15.29008388519287	-360.0747680664062	1574.8759765625	67.47084808349609	-448.8534851074219	1587.051635742188	-129.4845275878906	-437.5715942382812	904.2752075195312	-199.4070892333984	-583.469482421875	894.64404296875	109.6044998168945	-470.3163146972656	922.573486328125	115.0862731933594	-354.6695861816406	930.016357421875	-94.25086975097656	-252.5631103515625	477.4383544921875	-145.1747436523438	-301.6632690429688	603.1555786132812	-167.8432922363281	-156.0237121582031	53.91576766967773	-148.2918395996094	-198.6289825439453	267.5899963378906	-161.8288421630859	-14.19831562042236	135.1195526123047	-11.09326076507568	-83.78836059570312	94.14409637451172	-0.2448398619890213	-45.73992538452148	98.77113342285156	-107.1481094360352	-212.9230499267578	35.51206207275391	-101.8007583618164	-543.6776733398438	429.4869995117188	45.19670486450195	-517.3907470703125	681.4490356445312	113.7939300537109	-677.176513671875	53.43489074707031	-69.85984039306641	-548.9536743164062	309.7598876953125	5.355186462402344	-478.5114135742188	42.72760009765625	-73.97146606445312	-521.3577270507812	35.96656799316406	-129.1362457275391	-585.3770751953125	38.87768173217773	-29.00890159606934	-714.5331420898438	57.50270462036133	-128.9556884765625	-445.0562438964844	775.2222290039062	-268.7904052734375	nan	nan	nan	nan	nan	nan	nan	nan	nan	
151	1.5	-604.5064697265625	952.7267456054688	-19.81470489501953	-549.451171875	954.23974609375	-138.3132781982422	-586.096435546875	1013.956481933594	-73.27528381347656	-361.7472839355469	1194.929809570312	1.511590242385864	-591.5513916015625	1133.30810546875	-82.272216796875	-534.5274658203125	1379.613159179688	-89.40165710449219	-396.5285339355469	1319.37890625	-23.62075614929199	-610.1276245117188	1245.485473632812	-37.94076156616211	-510.5727233886719	1338.810791015625	-184.9244995117188	-409.7354125976562	1349.671752929688	-207.1452941894531	-425.0163269042969	1233.79296875	-278.9867553710938	-455.0220031738281	1034.465087890625	-301.8088073730469	-529.3838500976562	1035.019287109375	-260.1840515136719	-463.8511962890625	777.275390625	-330.149169921875	-464.5110778808594	931.3858642578125	-317.0627746582031	-489.4835205078125	614.8314819335938	-278.3476257324219	-490.3535461425781	711.6709594726562	-333.6778564453125	-449.5963745117188	693.9589233398438	-286.6034545898438	-544.404296875	1377.174682617188	82.16854858398438	-576.414794921875	1316.95703125	141.3432006835938	-553.5720825195312	1064.630737304688	235.5173187255859	-564.558837890625	1036.006469726562	146.6615142822266	-346.46044921875	917.8884887695312	236.8579864501953	-379.9000549316406	888.498046875	300.09716796875	-508.1982421875	1013.209716796875	260.8599243164062	-245.3450164794922	780.5474243164062	276.7388916015625	-272.0044860839844	848.406494140625	269.62158203125	-323.612060546875	825.15771484375	310.2977294921875	-500.3352661132812	1589.48486328125	3.609700441360474	-294.0343627929688	1569.658081054688	-10.94011783599854	-352.7742614746094	1573.0478515625	71.14981079101562	-439.1739501953125	1584.954345703125	-126.9203643798828	-425.7585144042969	901.521484375	-196.1236114501953	-577.0941162109375	893.2958984375	110.3880996704102	-463.9886169433594	920.8580932617188	117.9509048461914	-344.8018188476562	927.4684448242188	-89.48838043212891	-240.9131469726562	474.9876708984375	-141.1006774902344	-291.8484802246094	599.8722534179688	-165.0360870361328	-131.2581939697266	55.02018356323242	-135.9974670410156	-180.6371307373047	267.8999328613281	-154.0580291748047	2.168798446655273	141.8657836914062	6.6674485206604	-67.05892944335938	99.79001617431641	14.70393753051758	-23.57746124267578	102.9725112915039	-90.41020202636719	-189.9414978027344	36.26836776733398	-91.83913421630859	-540.4569702148438	428.291748046875	47.12334442138672	-513.293701171875	679.91259765625	116.1603469848633	-677.1028442382812	53.74736022949219	-69.76503753662109	-546.46875	308.5390014648438	6.751860618591309	-478.6042175292969	42.70361709594727	-73.83995056152344	-521.3626098632812	36.0003776550293	-129.0457458496094	-585.3367309570312	38.84334945678711	-28.87565422058105	-714.4683837890625	58.23313140869141	-128.7673492431641	-438.5438537597656	772.5191650390625	-265.9634094238281	nan	nan	nan	nan	nan	nan	nan	nan	nan	
